<svg width="117" height="49" viewBox="0 0 117 49" fill="none" xmlns="http://www.w3.org/2000/svg">
<path d="M16.4 2.2V19H13.208L4.832 8.8V19H0.992V2.2H4.208L12.56 12.4V2.2H16.4ZM20.1108 6.088H23.8548V19H20.1108V6.088ZM21.9828 4.288C21.2948 4.288 20.7348 4.088 20.3028 3.688C19.8708 3.288 19.6548 2.792 19.6548 2.2C19.6548 1.608 19.8708 1.112 20.3028 0.711999C20.7348 0.311999 21.2948 0.111999 21.9828 0.111999C22.6708 0.111999 23.2308 0.303999 23.6628 0.688C24.0948 1.072 24.3108 1.552 24.3108 2.128C24.3108 2.752 24.0948 3.272 23.6628 3.688C23.2308 4.088 22.6708 4.288 21.9828 4.288ZM35.1776 5.896C36.7776 5.896 38.0656 6.376 39.0416 7.336C40.0336 8.296 40.5296 9.72 40.5296 11.608V19H36.7856V12.184C36.7856 11.16 36.5616 10.4 36.1136 9.904C35.6656 9.392 35.0176 9.136 34.1696 9.136C33.2256 9.136 32.4736 9.432 31.9136 10.024C31.3536 10.6 31.0736 11.464 31.0736 12.616V19H27.3296V6.088H30.9056V7.6C31.4016 7.056 32.0176 6.64 32.7536 6.352C33.4896 6.048 34.2976 5.896 35.1776 5.896ZM57.2159 1.192V19H53.6399V17.512C52.7119 18.632 51.3679 19.192 49.6079 19.192C48.3919 19.192 47.2879 18.92 46.2959 18.376C45.3199 17.832 44.5519 17.056 43.9919 16.048C43.4319 15.04 43.1519 13.872 43.1519 12.544C43.1519 11.216 43.4319 10.048 43.9919 9.04C44.5519 8.032 45.3199 7.256 46.2959 6.712C47.2879 6.168 48.3919 5.896 49.6079 5.896C51.2559 5.896 52.5439 6.416 53.4719 7.456V1.192H57.2159ZM50.2559 16.12C51.1999 16.12 51.9839 15.8 52.6079 15.16C53.2319 14.504 53.5439 13.632 53.5439 12.544C53.5439 11.456 53.2319 10.592 52.6079 9.952C51.9839 9.296 51.1999 8.968 50.2559 8.968C49.2959 8.968 48.5039 9.296 47.8799 9.952C47.2559 10.592 46.9439 11.456 46.9439 12.544C46.9439 13.632 47.2559 14.504 47.8799 15.16C48.5039 15.8 49.2959 16.12 50.2559 16.12ZM73.4971 6.088L67.6651 19.792C67.0731 21.28 66.3371 22.328 65.4571 22.936C64.5931 23.544 63.5451 23.848 62.3131 23.848C61.6411 23.848 60.9771 23.744 60.3211 23.536C59.6651 23.328 59.1291 23.04 58.7131 22.672L60.0811 20.008C60.3691 20.264 60.6971 20.464 61.0651 20.608C61.4491 20.752 61.8251 20.824 62.1931 20.824C62.7051 20.824 63.1211 20.696 63.4411 20.44C63.7611 20.2 64.0491 19.792 64.3051 19.216L64.3531 19.096L58.7611 6.088H62.6251L66.2491 14.848L69.8971 6.088H73.4971ZM79.811 5.896C81.811 5.896 83.347 6.376 84.419 7.336C85.491 8.28 86.027 9.712 86.027 11.632V19H82.523V17.392C81.819 18.592 80.507 19.192 78.587 19.192C77.595 19.192 76.731 19.024 75.995 18.688C75.275 18.352 74.723 17.888 74.339 17.296C73.955 16.704 73.763 16.032 73.763 15.28C73.763 14.08 74.211 13.136 75.107 12.448C76.019 11.76 77.419 11.416 79.307 11.416H82.283C82.283 10.6 82.035 9.976 81.539 9.544C81.043 9.096 80.299 8.872 79.307 8.872C78.619 8.872 77.939 8.984 77.267 9.208C76.611 9.416 76.051 9.704 75.587 10.072L74.243 7.456C74.947 6.96 75.787 6.576 76.763 6.304C77.755 6.032 78.771 5.896 79.811 5.896ZM79.523 16.672C80.163 16.672 80.731 16.528 81.227 16.24C81.723 15.936 82.075 15.496 82.283 14.92V13.6H79.715C78.179 13.6 77.411 14.104 77.411 15.112C77.411 15.592 77.595 15.976 77.963 16.264C78.347 16.536 78.867 16.672 79.523 16.672ZM13.328 39.264C14.288 39.568 15.04 40.08 15.584 40.8C16.128 41.504 16.4 42.376 16.4 43.416C16.4 44.888 15.824 46.024 14.672 46.824C13.536 47.608 11.872 48 9.68 48H0.992V31.2H9.2C11.248 31.2 12.816 31.592 13.904 32.376C15.008 33.16 15.56 34.224 15.56 35.568C15.56 36.384 15.36 37.112 14.96 37.752C14.576 38.392 14.032 38.896 13.328 39.264ZM4.856 34.128V38.088H8.72C9.68 38.088 10.408 37.92 10.904 37.584C11.4 37.248 11.648 36.752 11.648 36.096C11.648 35.44 11.4 34.952 10.904 34.632C10.408 34.296 9.68 34.128 8.72 34.128H4.856ZM9.392 45.072C10.416 45.072 11.184 44.904 11.696 44.568C12.224 44.232 12.488 43.712 12.488 43.008C12.488 41.616 11.456 40.92 9.392 40.92H4.856V45.072H9.392ZM22.6556 36.792C23.1036 36.168 23.7036 35.696 24.4556 35.376C25.2236 35.056 26.1036 34.896 27.0956 34.896V38.352C26.6796 38.32 26.3996 38.304 26.2556 38.304C25.1836 38.304 24.3436 38.608 23.7356 39.216C23.1276 39.808 22.8236 40.704 22.8236 41.904V48H19.0796V35.088H22.6556V36.792ZM35.3486 48.192C33.9886 48.192 32.7646 47.912 31.6766 47.352C30.6046 46.776 29.7646 45.984 29.1566 44.976C28.5486 43.968 28.2446 42.824 28.2446 41.544C28.2446 40.264 28.5486 39.12 29.1566 38.112C29.7646 37.104 30.6046 36.32 31.6766 35.76C32.7646 35.184 33.9886 34.896 35.3486 34.896C36.7086 34.896 37.9246 35.184 38.9966 35.76C40.0686 36.32 40.9086 37.104 41.5166 38.112C42.1246 39.12 42.4286 40.264 42.4286 41.544C42.4286 42.824 42.1246 43.968 41.5166 44.976C40.9086 45.984 40.0686 46.776 38.9966 47.352C37.9246 47.912 36.7086 48.192 35.3486 48.192ZM35.3486 45.12C36.3086 45.12 37.0926 44.8 37.7006 44.16C38.3246 43.504 38.6366 42.632 38.6366 41.544C38.6366 40.456 38.3246 39.592 37.7006 38.952C37.0926 38.296 36.3086 37.968 35.3486 37.968C34.3886 37.968 33.5966 38.296 32.9726 38.952C32.3486 39.592 32.0366 40.456 32.0366 41.544C32.0366 42.632 32.3486 43.504 32.9726 44.16C33.5966 44.8 34.3886 45.12 35.3486 45.12ZM65.3156 35.088L60.6356 48H57.0356L54.1316 39.984L51.1316 48H47.5316L42.8756 35.088H46.4036L49.4516 43.824L52.6196 35.088H55.7876L58.8596 43.824L62.0036 35.088H65.3156ZM74.9041 34.896C76.5041 34.896 77.7921 35.376 78.7681 36.336C79.7601 37.296 80.2561 38.72 80.2561 40.608V48H76.5121V41.184C76.5121 40.16 76.2881 39.4 75.8401 38.904C75.3921 38.392 74.7441 38.136 73.8961 38.136C72.9521 38.136 72.2001 38.432 71.6401 39.024C71.0801 39.6 70.8001 40.464 70.8001 41.616V48H67.0561V35.088H70.6321V36.6C71.1281 36.056 71.7441 35.64 72.4801 35.352C73.2161 35.048 74.0241 34.896 74.9041 34.896ZM83.6499 35.088H87.3939V48H83.6499V35.088ZM85.5219 33.288C84.8339 33.288 84.2739 33.088 83.8419 32.688C83.4099 32.288 83.1939 31.792 83.1939 31.2C83.1939 30.608 83.4099 30.112 83.8419 29.712C84.2739 29.312 84.8339 29.112 85.5219 29.112C86.2099 29.112 86.7699 29.304 87.2019 29.688C87.6339 30.072 87.8499 30.552 87.8499 31.128C87.8499 31.752 87.6339 32.272 87.2019 32.688C86.7699 33.088 86.2099 33.288 85.5219 33.288ZM103.517 41.592C103.517 41.64 103.493 41.976 103.445 42.6H93.6766C93.8526 43.4 94.2686 44.032 94.9246 44.496C95.5806 44.96 96.3966 45.192 97.3726 45.192C98.0446 45.192 98.6366 45.096 99.1486 44.904C99.6766 44.696 100.165 44.376 100.613 43.944L102.605 46.104C101.389 47.496 99.6126 48.192 97.2766 48.192C95.8206 48.192 94.5326 47.912 93.4126 47.352C92.2926 46.776 91.4286 45.984 90.8206 44.976C90.2126 43.968 89.9086 42.824 89.9086 41.544C89.9086 40.28 90.2046 39.144 90.7966 38.136C91.4046 37.112 92.2286 36.32 93.2686 35.76C94.3246 35.184 95.5006 34.896 96.7966 34.896C98.0606 34.896 99.2046 35.168 100.229 35.712C101.253 36.256 102.053 37.04 102.629 38.064C103.221 39.072 103.517 40.248 103.517 41.592ZM96.8206 37.728C95.9726 37.728 95.2606 37.968 94.6846 38.448C94.1086 38.928 93.7566 39.584 93.6286 40.416H99.9886C99.8606 39.6 99.5086 38.952 98.9326 38.472C98.3566 37.976 97.6526 37.728 96.8206 37.728ZM110.353 48.192C109.281 48.192 108.233 48.064 107.209 47.808C106.185 47.536 105.369 47.2 104.761 46.8L106.009 44.112C106.585 44.48 107.281 44.784 108.097 45.024C108.913 45.248 109.713 45.36 110.497 45.36C112.081 45.36 112.873 44.968 112.873 44.184C112.873 43.816 112.657 43.552 112.225 43.392C111.793 43.232 111.129 43.096 110.233 42.984C109.177 42.824 108.305 42.64 107.617 42.432C106.929 42.224 106.329 41.856 105.817 41.328C105.321 40.8 105.073 40.048 105.073 39.072C105.073 38.256 105.305 37.536 105.769 36.912C106.249 36.272 106.937 35.776 107.833 35.424C108.745 35.072 109.817 34.896 111.049 34.896C111.961 34.896 112.865 35 113.761 35.208C114.673 35.4 115.425 35.672 116.017 36.024L114.769 38.688C113.633 38.048 112.393 37.728 111.049 37.728C110.249 37.728 109.649 37.84 109.249 38.064C108.849 38.288 108.649 38.576 108.649 38.928C108.649 39.328 108.865 39.608 109.297 39.768C109.729 39.928 110.417 40.08 111.361 40.224C112.417 40.4 113.281 40.592 113.953 40.8C114.625 40.992 115.209 41.352 115.705 41.88C116.201 42.408 116.449 43.144 116.449 44.088C116.449 44.888 116.209 45.6 115.729 46.224C115.249 46.848 114.545 47.336 113.617 47.688C112.705 48.024 111.617 48.192 110.353 48.192Z" fill="#54342B"/>
</svg>
